HIERARCHY
ROOT Hips
{
	OFFSET 0.000000 83.214638 0.000000
	CHANNELS 6 Xposition Yposition Zposition Xrotation Yrotation Zrotation
	JOINT Pelvis
	{
		OFFSET 0.000000 0.000000 0.000000
		CHANNELS 3 Xrotation Yrotation Zrotation
		JOINT LeftUpLeg
		{
			OFFSET 8.479700 -4.795502 -0.379100
			CHANNELS 3 Xrotation Yrotation Zrotation
			JOINT LeftLeg
			{
				OFFSET 0.024144 -32.555107 0.112900
				CHANNELS 3 Xrotation Yrotation Zrotation
				JOINT LeftFoot
				{
					OFFSET -0.024144 -32.638630 -3.012600
					CHANNELS 3 Xrotation Yrotation Zrotation
					JOINT LeftToeBase
					{
						OFFSET 0.970200 -13.225400 11.864200
						CHANNELS 3 Xrotation Yrotation Zrotation
						End Site
						{
							OFFSET 0.000000 12.319262 0.000000
						}
					}
					JOINT LFootTongue
					{
						OFFSET 1.142400 -1.059800 6.665200
						CHANNELS 3 Xrotation Yrotation Zrotation
						End Site
						{
							OFFSET 0.000000 12.319262 0.000000
						}
					}
				}
				JOINT LeftPantLeg
				{
					OFFSET 0.918482 -16.533964 -2.284700
					CHANNELS 3 Xrotation Yrotation Zrotation
					End Site
					{
						OFFSET 0.350399 24.744368 0.000000
					}
				}
			}
		}
		JOINT RightUpLeg
		{
			OFFSET -8.479700 -4.795502 -0.379100
			CHANNELS 3 Xrotation Yrotation Zrotation
			JOINT RightLeg
			{
				OFFSET -0.023144 -32.555092 0.112900
				CHANNELS 3 Xrotation Yrotation Zrotation
				JOINT RightFoot
				{
					OFFSET 0.023144 -32.638641 -3.012700
					CHANNELS 3 Xrotation Yrotation Zrotation
					JOINT RightToeBase
					{
						OFFSET -0.970200 -13.225400 11.864200
						CHANNELS 3 Xrotation Yrotation Zrotation
						End Site
						{
							OFFSET 0.000000 12.319244 0.000000
						}
					}
					JOINT RFootTongue
					{
						OFFSET -1.142200 -1.059800 6.665200
						CHANNELS 3 Xrotation Yrotation Zrotation
						End Site
						{
							OFFSET 0.000000 12.319243 0.000000
						}
					}
				}
				JOINT RightPantLeg
				{
					OFFSET -0.919482 -16.533978 -2.284800
					CHANNELS 3 Xrotation Yrotation Zrotation
					End Site
					{
						OFFSET -0.350400 24.744419 0.000000
					}
				}
			}
		}
	}
	JOINT Spine
	{
		OFFSET 0.000000 7.722000 1.166200
		CHANNELS 3 Xrotation Yrotation Zrotation
		JOINT Spine1
		{
			OFFSET 0.000000 12.024101 0.248800
			CHANNELS 3 Xrotation Yrotation Zrotation
			JOINT Spine2
			{
				OFFSET 0.000000 11.502998 -0.491200
				CHANNELS 3 Xrotation Yrotation Zrotation
				JOINT Neck
				{
					OFFSET 0.000000 18.430702 -3.123100
					CHANNELS 3 Xrotation Yrotation Zrotation
					JOINT Head
					{
						OFFSET 0.000000 9.051102 1.034000
						CHANNELS 3 Xrotation Yrotation Zrotation
						JOINT HairB
						{
							OFFSET 0.208400 24.786102 24.822300
							CHANNELS 3 Xrotation Yrotation Zrotation
							End Site
							{
								OFFSET 0.000000 32.263779 0.000000
							}
						}
						JOINT HairA
						{
							OFFSET -7.081100 24.428299 23.196600
							CHANNELS 3 Xrotation Yrotation Zrotation
							End Site
							{
								OFFSET 0.000000 32.263779 0.000000
							}
						}
						JOINT Hat
						{
							OFFSET 16.728800 15.048294 -15.439601
							CHANNELS 3 Xrotation Yrotation Zrotation
							End Site
							{
								OFFSET 0.000000 32.263779 0.000000
							}
						}
					}
				}
				JOINT LeftShoulder
				{
					OFFSET 6.197800 13.665199 -4.064700
					CHANNELS 3 Xrotation Yrotation Zrotation
					JOINT LeftArm
					{
						OFFSET 7.778100 -0.187103 -1.709300
						CHANNELS 3 Xrotation Yrotation Zrotation
						JOINT LeftForeArm
						{
							OFFSET 22.049376 0.000000 0.000000
							CHANNELS 3 Xrotation Yrotation Zrotation
							JOINT LeftHand
							{
								OFFSET 23.009392 0.000000 0.000000
								CHANNELS 3 Xrotation Yrotation Zrotation
								JOINT LeftHandThumb1
								{
									OFFSET 3.507191 -2.063065 3.133727
									CHANNELS 3 Xrotation Yrotation Zrotation
									JOINT LeftHandThumb2
									{
										OFFSET 3.101337 -1.790558 1.790558
										CHANNELS 3 Xrotation Yrotation Zrotation
										JOINT LeftHandThumb3
										{
											OFFSET 3.058640 -1.765907 1.765906
											CHANNELS 3 Xrotation Yrotation Zrotation
											End Site
											{
												OFFSET -0.415260 3.926476 -0.049563
											}
										}
									}
								}
								JOINT LeftHandIndex1
								{
									OFFSET 11.334419 -0.901459 3.706815
									CHANNELS 3 Xrotation Yrotation Zrotation
									JOINT LeftHandIndex2
									{
										OFFSET 3.283112 0.000000 0.000000
										CHANNELS 3 Xrotation Yrotation Zrotation
										JOINT LeftHandIndex3
										{
											OFFSET 3.323853 0.000000 0.000000
											CHANNELS 3 Xrotation Yrotation Zrotation
											End Site
											{
												OFFSET -1.135597 3.097809 0.402452
											}
										}
									}
								}
								JOINT LeftHandMiddle1
								{
									OFFSET 11.335861 0.000000 0.000000
									CHANNELS 3 Xrotation Yrotation Zrotation
									JOINT LeftHandMiddle2
									{
										OFFSET 3.410492 0.000000 0.000000
										CHANNELS 3 Xrotation Yrotation Zrotation
										JOINT LeftHandMiddle3
										{
											OFFSET 3.312172 0.000000 0.000000
											CHANNELS 3 Xrotation Yrotation Zrotation
											End Site
											{
												OFFSET -1.150200 3.080154 0.400270
											}
										}
									}
								}
								JOINT LeftHandRing1
								{
									OFFSET 11.514786 -0.013176 -3.003090
									CHANNELS 3 Xrotation Yrotation Zrotation
									JOINT LeftHandRing2
									{
										OFFSET 3.053307 0.000000 0.000000
										CHANNELS 3 Xrotation Yrotation Zrotation
										JOINT LeftHandRing3
										{
											OFFSET 3.295807 0.000000 0.000000
											CHANNELS 3 Xrotation Yrotation Zrotation
											End Site
											{
												OFFSET -1.281006 3.013344 0.375733
											}
										}
									}
								}
								JOINT LeftHandPinky1
								{
									OFFSET 10.518692 -0.960396 -5.730441
									CHANNELS 3 Xrotation Yrotation Zrotation
									JOINT LeftHandPinky2
									{
										OFFSET 2.861649 0.000000 0.000000
										CHANNELS 3 Xrotation Yrotation Zrotation
										JOINT LeftHandPinky3
										{
											OFFSET 2.863380 0.000000 0.000000
											CHANNELS 3 Xrotation Yrotation Zrotation
											End Site
											{
												OFFSET -0.843597 2.711159 0.369971
											}
										}
									}
								}
							}
							JOINT LSleeve
							{
								OFFSET 6.676277 -0.344902 -1.011730
								CHANNELS 3 Xrotation Yrotation Zrotation
								End Site
								{
									OFFSET 0.000000 14.885353 0.000000
								}
							}
						}
					}
				}
				JOINT RightShoulder
				{
					OFFSET -6.197800 13.665199 -4.064700
					CHANNELS 3 Xrotation Yrotation Zrotation
					JOINT RightArm
					{
						OFFSET -7.778100 -0.187103 -1.709300
						CHANNELS 3 Xrotation Yrotation Zrotation
						JOINT RightForeArm
						{
							OFFSET -22.049376 0.000000 0.000000
							CHANNELS 3 Xrotation Yrotation Zrotation
							JOINT RightHand
							{
								OFFSET -23.009392 0.000000 0.000000
								CHANNELS 3 Xrotation Yrotation Zrotation
								JOINT RightHandThumb1
								{
									OFFSET -3.507191 -2.063065 3.133727
									CHANNELS 3 Xrotation Yrotation Zrotation
									JOINT RightHandThumb2
									{
										OFFSET -3.101337 -1.790558 1.790558
										CHANNELS 3 Xrotation Yrotation Zrotation
										JOINT RightHandThumb3
										{
											OFFSET -3.058640 -1.765907 1.765906
											CHANNELS 3 Xrotation Yrotation Zrotation
											End Site
											{
												OFFSET 0.415260 3.926476 -0.049563
											}
										}
									}
								}
								JOINT RightHandIndex1
								{
									OFFSET -11.334419 -0.901459 3.706815
									CHANNELS 3 Xrotation Yrotation Zrotation
									JOINT RightHandIndex2
									{
										OFFSET -3.283112 0.000000 0.000000
										CHANNELS 3 Xrotation Yrotation Zrotation
										JOINT RightHandIndex3
										{
											OFFSET -3.323853 0.000000 0.000000
											CHANNELS 3 Xrotation Yrotation Zrotation
											End Site
											{
												OFFSET 1.135597 3.097809 0.402452
											}
										}
									}
								}
								JOINT RightHandMiddle1
								{
									OFFSET -11.335861 0.000000 0.000000
									CHANNELS 3 Xrotation Yrotation Zrotation
									JOINT RightHandMiddle2
									{
										OFFSET -3.410492 0.000000 0.000000
										CHANNELS 3 Xrotation Yrotation Zrotation
										JOINT RightHandMiddle3
										{
											OFFSET -3.312172 0.000000 0.000000
											CHANNELS 3 Xrotation Yrotation Zrotation
											End Site
											{
												OFFSET 1.150200 3.080154 0.400270
											}
										}
									}
								}
								JOINT RightHandRing1
								{
									OFFSET -11.514786 -0.013176 -3.003090
									CHANNELS 3 Xrotation Yrotation Zrotation
									JOINT RightHandRing2
									{
										OFFSET -3.053307 0.000000 0.000000
										CHANNELS 3 Xrotation Yrotation Zrotation
										JOINT RightHandRing3
										{
											OFFSET -3.295807 0.000000 0.000000
											CHANNELS 3 Xrotation Yrotation Zrotation
											End Site
											{
												OFFSET 1.281006 3.013344 0.375733
											}
										}
									}
								}
								JOINT RightHandPinky1
								{
									OFFSET -10.518692 -0.960396 -5.730441
									CHANNELS 3 Xrotation Yrotation Zrotation
									JOINT RightHandPinky2
									{
										OFFSET -2.861649 0.000000 0.000000
										CHANNELS 3 Xrotation Yrotation Zrotation
										JOINT RightHandPinky3
										{
											OFFSET -2.863380 0.000000 0.000000
											CHANNELS 3 Xrotation Yrotation Zrotation
											End Site
											{
												OFFSET 0.843597 2.711159 0.369971
											}
										}
									}
								}
							}
							JOINT RSleeve
							{
								OFFSET -6.676277 -0.344902 -1.011730
								CHANNELS 3 Xrotation Yrotation Zrotation
								End Site
								{
									OFFSET 0.000000 14.885353 0.000000
								}
							}
						}
					}
				}
				JOINT Backpack
				{
					OFFSET 0.000000 -2.471497 36.677502
					CHANNELS 3 Xrotation Yrotation Zrotation
					End Site
					{
						OFFSET 0.000000 20.427315 0.000000
					}
				}
				JOINT Hood
				{
					OFFSET 0.000000 18.754097 -10.431000
					CHANNELS 3 Xrotation Yrotation Zrotation
					JOINT Hood1
					{
						OFFSET 0.000000 -5.011002 -7.685901
						CHANNELS 3 Xrotation Yrotation Zrotation
						End Site
						{
							OFFSET 0.000000 9.175140 0.000000
						}
					}
				}
				JOINT LHoodieString
				{
					OFFSET 5.250500 16.397697 3.089900
					CHANNELS 3 Xrotation Yrotation Zrotation
					JOINT LHoodieString1
					{
						OFFSET 0.257700 -6.364304 3.694600
						CHANNELS 3 Xrotation Yrotation Zrotation
						JOINT LHoodieString2
						{
							OFFSET 0.000000 -9.643799 2.679100
							CHANNELS 3 Xrotation Yrotation Zrotation
							End Site
							{
								OFFSET 0.000000 10.009018 0.000000
							}
						}
					}
				}
				JOINT RHoodieString
				{
					OFFSET -5.250500 16.397697 3.089900
					CHANNELS 3 Xrotation Yrotation Zrotation
					JOINT RHoodieString1
					{
						OFFSET -0.257700 -6.364304 3.694600
						CHANNELS 3 Xrotation Yrotation Zrotation
						JOINT RHoodieString2
						{
							OFFSET 0.000000 -9.643799 2.679100
							CHANNELS 3 Xrotation Yrotation Zrotation
							End Site
							{
								OFFSET 0.000000 10.009018 0.000000
							}
						}
					}
				}
			}
			JOINT LBackpack_Strap
			{
				OFFSET 15.223200 -7.719803 -6.610900
				CHANNELS 3 Xrotation Yrotation Zrotation
				End Site
				{
					OFFSET 0.000000 16.040596 0.000000
				}
			}
			JOINT RBackpack_Strap
			{
				OFFSET -15.223000 -7.719803 -6.610900
				CHANNELS 3 Xrotation Yrotation Zrotation
				End Site
				{
					OFFSET 0.000000 16.040596 0.000000
				}
			}
		}
	}
	JOINT BoyFacialAnim_Joint
	{
		OFFSET 1.000000 -82.208099 -1.550900
		CHANNELS 3 Xrotation Yrotation Zrotation
		End Site
		{
			OFFSET 0.000000 30.012791 0.000000
		}
	}
}
MOTION
Frames: 5
Frame Time: 0.033333
2.735430 78.885353 -2.395024 -123.452951 -81.895314 -117.792350 0.000000 -0.000000 -0.000001 -14.985819 19.939522 3.979241 48.995727 10.453383 2.049686 -4.849988 20.859697 11.203395 0.000002 -0.000003 0.000002 0.000002 -0.000003 0.000002 -0.000002 0.000001 -0.000000 -20.716995 -26.237238 -12.750297 40.189226 -0.435384 -1.212073 -19.237375 -8.980209 -4.106143 0.000000 -0.000000 0.000000 0.000000 -0.000000 0.000000 0.000000 0.000001 -0.000001 6.758210 -3.927203 -2.202323 1.786453 -0.872522 -0.794266 1.785672 -0.857762 -0.739731 2.859360 3.204837 0.347039 11.683183 -39.965298 15.639760 -0.000001 0.000001 0.000001 -0.000001 0.000001 0.000001 -0.000001 0.000001 0.000001 3.385481 -10.816077 -15.929847 9.281327 -9.255976 -38.329792 -0.000067 -77.127323 -0.000084 -132.074166 1.780668 14.443661 -12.800119 -17.470123 4.121649 1.000135 0.731302 -1.438318 0.000000 -0.000001 -0.000001 -3.532546 4.254378 -63.954565 3.402098 5.315532 -65.218942 -0.000001 -0.000003 0.000001 2.434394 7.296053 -69.364075 3.297850 5.266364 -64.088649 0.000001 -0.000001 0.000000 4.717038 8.075505 -77.582268 2.056274 4.456888 -49.517666 -0.000002 -0.000001 0.000001 6.410343 8.363715 -80.414556 1.722711 4.149893 -45.074413 -0.000001 0.000002 0.000000 0.000002 0.000001 0.000002 4.400751 5.635590 3.668139 1.346619 39.219281 56.850048 -0.000016 85.541822 0.000005 -33.208267 -23.191327 23.715402 20.470560 7.475581 18.843585 4.151729 -12.160908 -33.847993 0.000000 0.000001 0.000004 -0.887086 1.427984 12.684528 1.917405 -3.767476 53.934329 -0.000004 0.000001 0.000000 0.770900 -5.199603 54.618823 5.563864 -4.568234 101.238580 0.000000 0.000003 -0.000005 6.934472 -8.544272 63.908755 2.909305 -4.317401 67.934728 0.000003 0.000002 0.000001 8.373408 -8.171742 73.989930 2.173674 -3.940985 57.745404 0.000000 -0.000000 0.000002 -0.000000 -0.000001 -0.000004 -0.000000 0.000000 -0.000000 -0.000000 0.000000 -0.000000 -0.000000 0.000000 -0.000000 -0.000000 0.000000 -0.000000 -0.000000 0.000000 -0.000000 -0.000000 0.000000 -0.000000 -0.000000 0.000000 -0.000000 -0.000000 0.000000 -0.000000 -0.000000 0.000000 -0.000000 -0.000000 0.000000 -0.000000 -0.000000 0.000000 -0.000000 0.000000 -0.000000 -0.000001 
1.941710 79.006462 -2.947863 -148.701128 -77.013101 -143.759786 -0.000000 -0.000001 -0.000000 -17.129097 17.928253 1.379459 49.755398 10.033756 2.923234 -3.946027 20.451345 12.386645 0.000001 -0.000002 0.000001 0.000001 -0.000002 0.000001 0.000001 0.000001 0.000000 -18.453549 -22.911431 -9.310992 39.123426 -2.284630 -1.815967 -18.901922 -5.613664 -3.604526 0.000000 -0.000000 0.000000 0.000000 -0.000000 0.000000 0.000001 -0.000000 0.000000 6.867927 -4.197096 -1.933795 1.788694 -0.957583 -0.789861 1.787280 -0.942865 -0.737139 2.807399 3.322985 0.354291 10.938468 -38.783535 14.986229 0.000002 0.000001 -0.000001 0.000002 0.000001 -0.000001 0.000002 0.000001 -0.000001 3.286189 -11.509332 -16.285095 8.394850 -9.569636 -38.089195 0.000041 -76.628425 0.000015 -131.965033 2.201321 14.924219 -12.800119 -17.470126 4.121652 1.000134 0.731303 -1.438321 0.000000 -0.000000 -0.000003 -3.532549 4.254378 -63.954565 3.402100 5.315526 -65.218942 -0.000003 -0.000002 -0.000002 2.434394 7.296055 -69.364082 3.297850 5.266363 -64.088649 -0.000001 -0.000000 0.000000 4.717042 8.075508 -77.582268 2.056279 4.456882 -49.517666 -0.000001 0.000000 -0.000002 6.410343 8.363713 -80.414556 1.722710 4.149891 -45.074416 -0.000005 0.000001 -0.000002 0.000003 -0.000001 -0.000001 4.227772 6.279227 3.531099 1.750784 37.928969 56.379762 -0.000245 86.278717 0.000263 -33.760225 -23.294599 22.940719 20.470557 7.475578 18.843585 4.151731 -12.160907 -33.847986 0.000002 -0.000002 0.000000 -0.887086 1.427982 12.684527 1.917409 -3.767476 53.934326 -0.000002 -0.000000 0.000000 0.770899 -5.199602 54.618830 5.563863 -4.568235 101.238580 -0.000001 0.000002 0.000000 6.934470 -8.544276 63.908762 2.909304 -4.317400 67.934728 -0.000001 0.000000 -0.000003 8.373409 -8.171740 73.989937 2.173675 -3.940984 57.745404 -0.000000 -0.000001 0.000002 0.000000 0.000001 -0.000001 -0.000000 -0.000001 -0.000000 -0.000000 -0.000001 -0.000000 -0.000000 -0.000001 -0.000000 -0.000000 -0.000001 -0.000000 -0.000000 -0.000001 -0.000000 -0.000000 0.000000 -0.000000 -0.000000 -0.000001 -0.000000 -0.000000 -0.000001 -0.000000 -0.000000 0.000000 -0.000000 0.000000 0.000001 -0.000000 0.000000 0.000001 -0.000000 -0.000000 -0.000001 -0.000000 
1.085444 79.203636 -3.501880 -159.364747 -71.034043 -155.220721 0.000000 0.000002 0.000001 -19.306539 15.956806 -0.743421 49.262114 10.130186 3.556831 -3.455470 18.355686 13.693514 -0.000000 0.000002 0.000000 -0.000000 0.000002 0.000000 -0.000001 -0.000001 -0.000000 -16.304737 -19.922796 -6.616025 37.673227 -3.903173 -1.858270 -18.479744 -1.696683 -3.288782 0.000000 -0.000000 0.000000 0.000000 -0.000000 0.000000 0.000002 0.000002 -0.000000 6.905673 -4.496730 -1.678479 1.774746 -1.056146 -0.779504 1.772606 -1.042296 -0.724908 2.728052 3.485821 0.412338 10.223700 -37.041376 14.208593 0.000000 0.000000 -0.000000 0.000000 0.000000 -0.000000 0.000000 0.000000 -0.000000 3.156870 -11.723818 -16.196108 8.044981 -10.251880 -37.651848 0.000021 -76.496008 -0.000011 -132.167480 1.917119 14.905491 -12.800117 -17.470125 4.121653 1.000137 0.731302 -1.438323 0.000002 -0.000000 -0.000001 -3.532547 4.254376 -63.954565 3.402099 5.315529 -65.218942 0.000001 -0.000001 -0.000000 2.434394 7.296054 -69.364075 3.297850 5.266364 -64.088649 0.000002 0.000001 -0.000003 4.717042 8.075509 -77.582268 2.056281 4.456882 -49.517669 0.000004 -0.000000 0.000001 6.410346 8.363716 -80.414549 1.722713 4.149891 -45.074416 -0.000000 0.000002 -0.000000 0.000001 0.000000 0.000000 4.025074 7.383850 4.053177 2.600188 36.573993 54.862924 0.001270 87.168561 -0.001223 -34.464516 -23.072702 22.283805 20.470557 7.475579 18.843582 4.151731 -12.160904 -33.847986 -0.000000 0.000001 0.000000 -0.887089 1.427983 12.684527 1.917407 -3.767475 53.934326 -0.000000 -0.000001 0.000003 0.770898 -5.199598 54.618823 5.563863 -4.568234 101.238580 -0.000000 0.000001 -0.000000 6.934470 -8.544276 63.908762 2.909306 -4.317402 67.934728 0.000001 0.000002 -0.000001 8.373409 -8.171741 73.989937 2.173675 -3.940982 57.745404 -0.000001 0.000000 0.000002 -0.000001 -0.000000 -0.000002 0.000000 0.000000 -0.000000 0.000000 0.000000 -0.000000 0.000000 0.000000 -0.000000 0.000000 0.000000 -0.000000 0.000000 0.000000 -0.000000 0.000000 0.000000 -0.000000 0.000000 0.000000 -0.000000 0.000000 0.000000 -0.000000 0.000000 0.000000 -0.000000 0.000000 0.000001 -0.000000 0.000000 0.000001 -0.000000 0.000000 0.000002 0.000001 
0.171501 79.460732 -4.062003 -164.838146 -64.696631 -161.520122 -0.000000 0.000000 -0.000000 -21.107340 14.209794 -1.959633 47.501975 10.351126 3.979946 -2.962007 15.482837 13.837744 -0.000000 0.000000 -0.000001 -0.000000 0.000000 -0.000001 -0.000001 0.000000 -0.000001 -14.246994 -17.252776 -4.739797 35.986723 -5.283990 -1.327359 -17.994922 2.776054 -3.126306 0.000000 0.000000 0.000000 0.000000 0.000000 0.000000 0.000001 -0.000001 0.000001 6.871687 -4.845177 -1.495407 1.753804 -1.170307 -0.766505 1.750935 -1.158108 -0.706222 2.624448 3.691865 0.508220 9.604757 -34.789275 13.393995 -0.000000 -0.000002 -0.000000 -0.000000 -0.000002 -0.000000 -0.000000 -0.000002 -0.000000 2.954765 -12.106757 -16.431372 8.431762 -10.024661 -36.738628 0.000098 -77.550077 0.000099 -132.426918 0.769327 14.584056 -12.800124 -17.470126 4.121641 1.000134 0.731302 -1.438324 0.000001 0.000001 -0.000002 -3.532551 4.254376 -63.954579 3.402098 5.315527 -65.218949 -0.000002 -0.000002 0.000001 2.434392 7.296053 -69.364089 3.297851 5.266363 -64.088649 0.000004 -0.000001 -0.000002 4.717038 8.075503 -77.582275 2.056279 4.456883 -49.517669 -0.000001 -0.000001 -0.000004 6.410343 8.363713 -80.414563 1.722713 4.149891 -45.074416 0.000003 -0.000001 0.000001 -0.000000 -0.000002 0.000000 3.825359 8.154101 3.797386 2.760365 35.715486 54.543090 -0.000426 87.617728 0.000545 -34.460053 -22.262185 22.448361 20.470555 7.475581 18.843584 4.151730 -12.160908 -33.847989 0.000000 -0.000002 0.000001 -0.887089 1.427981 12.684532 1.917408 -3.767476 53.934329 0.000000 -0.000000 0.000003 0.770898 -5.199604 54.618830 5.563867 -4.568235 101.238580 0.000001 0.000003 -0.000002 6.934470 -8.544276 63.908762 2.909302 -4.317402 67.934735 -0.000001 -0.000001 0.000007 8.373406 -8.171743 73.989937 2.173674 -3.940982 57.745404 -0.000001 -0.000001 0.000003 0.000001 -0.000001 -0.000000 0.000000 0.000001 -0.000000 0.000000 0.000001 -0.000000 0.000000 0.000001 -0.000000 0.000000 0.000001 -0.000000 0.000000 0.000001 -0.000000 -0.000000 -0.000003 0.000000 0.000000 0.000001 -0.000000 0.000000 0.000001 -0.000000 -0.000000 -0.000003 0.000000 -0.000000 0.000000 -0.000000 -0.000000 0.000000 -0.000000 -0.000000 0.000000 -0.000000 
-0.779296 79.747208 -4.628713 -167.896199 -58.130934 -165.415543 -0.000000 -0.000002 -0.000000 -22.345346 12.908635 -2.358127 44.373280 9.436644 4.259426 -2.202534 12.584729 12.923724 -0.000000 -0.000000 -0.000001 -0.000000 -0.000000 -0.000001 -0.000001 -0.000000 0.000000 -12.134196 -14.415218 -2.670336 34.109592 -4.429465 -1.389882 -17.354051 4.849851 -3.433466 -0.000000 0.000002 0.000000 -0.000000 0.000002 0.000000 0.000003 0.000001 0.000000 6.900788 -5.082140 -1.441341 1.739902 -1.250440 -0.759068 1.736182 -1.240282 -0.692465 2.520932 3.918570 0.621226 8.835478 -32.269557 12.597555 0.000002 -0.000001 0.000000 0.000002 -0.000001 0.000000 0.000002 -0.000001 0.000000 2.671758 -12.772402 -16.585190 8.661676 -9.205833 -35.936542 0.000105 -78.828422 0.000099 -132.415429 -0.304127 14.278159 -12.800119 -17.470125 4.121650 1.000137 0.731303 -1.438320 0.000002 -0.000000 0.000002 -3.532549 4.254376 -63.954572 3.402101 5.315529 -65.218942 -0.000002 -0.000000 -0.000002 2.434394 7.296056 -69.364082 3.297854 5.266358 -64.088649 -0.000005 -0.000002 -0.000002 4.717041 8.075507 -77.582268 2.056278 4.456882 -49.517669 -0.000002 -0.000002 -0.000003 6.410343 8.363716 -80.414549 1.722712 4.149892 -45.074416 -0.000001 0.000000 0.000002 -0.000001 -0.000001 -0.000002 3.626250 8.920497 4.234313 3.216512 34.901553 53.410966 0.002110 88.196942 -0.002076 -34.534540 -21.375523 22.512387 20.470557 7.475580 18.843585 4.151729 -12.160908 -33.847989 0.000001 0.000001 -0.000001 -0.887085 1.427983 12.684530 1.917408 -3.767473 53.934329 0.000001 -0.000000 0.000003 0.770898 -5.199603 54.618827 5.563863 -4.568236 101.238587 0.000001 0.000000 -0.000000 6.934473 -8.544275 63.908755 2.909305 -4.317403 67.934728 0.000003 -0.000000 0.000004 8.373412 -8.171742 73.989930 2.173677 -3.940985 57.745411 -0.000000 0.000001 0.000002 -0.000001 0.000001 0.000000 0.000000 0.000001 -0.000000 0.000000 0.000001 -0.000000 0.000000 0.000001 -0.000000 0.000000 0.000001 -0.000000 0.000000 0.000001 -0.000000 0.000000 -0.000000 0.000000 0.000000 0.000001 -0.000000 0.000000 0.000001 -0.000000 0.000000 -0.000000 0.000000 -0.000000 0.000002 0.000000 -0.000000 0.000002 0.000000 -0.000000 -0.000002 -0.000000 
